<svg xmlns="http://www.w3.org/2000/svg" width="16" height="16"><path fill="#FF7A00" fill-rule="evenodd" d="M0 13c0 .55.45 1 1 1h4c.583 0 1.024-.47 1.024-.988L6 9c0-1.037-.964-2-2-2H2C.931 7 0 7.996 0 9zm7.514-5L7.5 14H10c.55 0 1-.482 1-1V9c0-1.134-.862-2-1.996-2h-.486a.985.985 0 0 0-1.004 1m4.988 0-.002 6 2.496-.016c.55 0 1.004-.466 1.004-.984V9c0-1.134-.866-2-2-2h-.526c-.55 0-.972.45-.972 1M3.016 5C3.836 5 4.5 4.337 4.5 3.484 4.5 2.664 3.837 2 3.016 2S1.5 2.663 1.5 3.484C1.5 4.337 2.195 5 3.016 5m5.5 0C9.336 5 10 4.337 10 3.484 10 2.664 9.337 2 8.516 2S7 2.663 7 3.484C7 4.337 7.695 5 8.516 5m4.968 0C14.337 5 15 4.337 15 3.484 15 2.664 14.337 2 13.484 2 12.664 2 12 2.663 12 3.484 12 4.337 12.663 5 13.484 5"/></svg>