<svg width="15" height="15" viewBox="0 0 15 15" fill="none" xmlns="http://www.w3.org/2000/svg">
<g clip-path="url(#clip0_13_2302)">
<path d="M14.5329 13.1813C14.6204 13.0935 14.6696 12.9745 14.6696 12.8504C14.6696 12.7263 14.6204 12.6073 14.5329 12.5195L13.555 11.5407L11.68 13.4157L12.6579 14.3945C12.7458 14.4823 12.865 14.5317 12.9893 14.5317C13.1136 14.5317 13.2328 14.4823 13.3207 14.3945L14.5329 13.1823V13.1813ZM12.8922 10.8788L11.0172 12.7538L4.63005 6.36571C4.57845 6.31413 4.5396 6.25121 4.51661 6.18196L3.76192 3.91884C3.74823 3.87758 3.74629 3.83333 3.75631 3.79103C3.76633 3.74873 3.78791 3.71005 3.81865 3.67931C3.84938 3.64858 3.88806 3.62699 3.93036 3.61698C3.97266 3.60696 4.01691 3.6089 4.05817 3.62259L6.3213 4.37728C6.39045 4.4 6.45336 4.43852 6.50505 4.48978L12.8922 10.8779V10.8788Z" fill="#297CF6"/>
<path fill-rule="evenodd" clip-rule="evenodd" d="M0.9375 2.34375C0.9375 1.97079 1.08566 1.6131 1.34938 1.34938C1.6131 1.08566 1.97079 0.9375 2.34375 0.9375H12.6562C13.0292 0.9375 13.3869 1.08566 13.6506 1.34938C13.9143 1.6131 14.0625 1.97079 14.0625 2.34375V7.96875C14.0625 8.09307 14.0131 8.2123 13.9252 8.30021C13.8373 8.38811 13.7181 8.4375 13.5938 8.4375C13.4694 8.4375 13.3502 8.38811 13.2623 8.30021C13.1744 8.2123 13.125 8.09307 13.125 7.96875V2.34375C13.125 2.21943 13.0756 2.1002 12.9877 2.01229C12.8998 1.92439 12.7806 1.875 12.6562 1.875H2.34375C2.21943 1.875 2.1002 1.92439 2.01229 2.01229C1.92439 2.1002 1.875 2.21943 1.875 2.34375V12.6562C1.875 12.7806 1.92439 12.8998 2.01229 12.9877C2.1002 13.0756 2.21943 13.125 2.34375 13.125H8.4375C8.56182 13.125 8.68105 13.1744 8.76896 13.2623C8.85686 13.3502 8.90625 13.4694 8.90625 13.5938C8.90625 13.7181 8.85686 13.8373 8.76896 13.9252C8.68105 14.0131 8.56182 14.0625 8.4375 14.0625H2.34375C1.97079 14.0625 1.6131 13.9143 1.34938 13.6506C1.08566 13.3869 0.9375 13.0292 0.9375 12.6562V2.34375Z" fill="#297CF6"/>
</g>
<defs>
<clipPath id="clip0_13_2302">
<rect width="15" height="15" fill="white" transform="matrix(1 0 0 -1 0 15)"/>
</clipPath>
</defs>
</svg>
