<svg width="15" height="15" viewBox="0 0 15 15" fill="none" xmlns="http://www.w3.org/2000/svg">
<g clip-path="url(#clip0_13_2295)">
<path fill-rule="evenodd" clip-rule="evenodd" d="M15 7.5C15 5.51088 14.2098 3.60322 12.8033 2.1967C11.3968 0.790176 9.48912 0 7.5 0C5.51088 0 3.60322 0.790176 2.1967 2.1967C0.790176 3.60322 0 5.51088 0 7.5C0 9.48912 0.790176 11.3968 2.1967 12.8033C3.60322 14.2098 5.51088 15 7.5 15C9.48912 15 11.3968 14.2098 12.8033 12.8033C14.2098 11.3968 15 9.48912 15 7.5ZM5.01937 10.6444C4.93136 10.7324 4.81198 10.7818 4.6875 10.7818C4.56302 10.7818 4.44364 10.7324 4.35563 10.6444C4.26761 10.5564 4.21816 10.437 4.21816 10.3125C4.21816 10.188 4.26761 10.0686 4.35563 9.98063L6.83719 7.5L4.35563 5.01937C4.31204 4.97579 4.27747 4.92405 4.25388 4.86711C4.2303 4.81017 4.21816 4.74914 4.21816 4.6875C4.21816 4.62586 4.2303 4.56483 4.25388 4.50789C4.27747 4.45095 4.31204 4.39921 4.35563 4.35563C4.44364 4.26761 4.56302 4.21816 4.6875 4.21816C4.74914 4.21816 4.81017 4.2303 4.86711 4.25388C4.92405 4.27747 4.97579 4.31204 5.01937 4.35563L7.5 6.83719L9.98063 4.35563C10.0242 4.31204 10.0759 4.27747 10.1329 4.25388C10.1898 4.2303 10.2509 4.21816 10.3125 4.21816C10.3741 4.21816 10.4352 4.2303 10.4921 4.25388C10.5491 4.27747 10.6008 4.31204 10.6444 4.35563C10.688 4.39921 10.7225 4.45095 10.7461 4.50789C10.7697 4.56483 10.7818 4.62586 10.7818 4.6875C10.7818 4.74914 10.7697 4.81017 10.7461 4.86711C10.7225 4.92405 10.688 4.97579 10.6444 5.01937L8.16281 7.5L10.6444 9.98063C10.688 10.0242 10.7225 10.0759 10.7461 10.1329C10.7697 10.1898 10.7818 10.2509 10.7818 10.3125C10.7818 10.3741 10.7697 10.4352 10.7461 10.4921C10.7225 10.5491 10.688 10.6008 10.6444 10.6444C10.6008 10.688 10.5491 10.7225 10.4921 10.7461C10.4352 10.7697 10.3741 10.7818 10.3125 10.7818C10.2509 10.7818 10.1898 10.7697 10.1329 10.7461C10.0759 10.7225 10.0242 10.688 9.98063 10.6444L7.5 8.16281L5.01937 10.6444Z" fill="#E35D6A"/>
</g>
<defs>
<clipPath id="clip0_13_2295">
<rect width="15" height="15" fill="white" transform="matrix(1 0 0 -1 0 15)"/>
</clipPath>
</defs>
</svg>
